<svg width="25" height="24" viewBox="0 0 25 24" fill="none" xmlns="http://www.w3.org/2000/svg">
<path d="M14.1374 1.48672L16.6249 6.76172C16.8124 7.14922 17.1624 7.42424 17.5874 7.48674L23.1624 8.33673C24.1999 8.49923 24.6249 9.83673 23.8624 10.5992L19.8249 14.7117C19.5249 15.0117 19.3874 15.4617 19.4624 15.8867L20.4124 21.6867C20.5874 22.7742 19.4999 23.5992 18.5624 23.0867L13.5749 20.3492C13.1999 20.1492 12.7624 20.1492 12.3874 20.3492L7.39987 23.0867C6.46237 23.5992 5.3749 22.7742 5.5499 21.6867L6.49987 15.8867C6.57487 15.4617 6.4374 15.0117 6.1374 14.7117L2.09988 10.5992C1.34988 9.83673 1.76238 8.48673 2.79988 8.33673L8.37487 7.48674C8.78737 7.42424 9.14989 7.14922 9.33739 6.76172L11.8249 1.48672C12.2874 0.499219 13.6374 0.499219 14.0999 1.48672H14.1374Z" stroke="#000040" stroke-width="1.5" stroke-linecap="round" stroke-linejoin="round"/>
</svg>
